<svg width="491" height="126" viewBox="0 0 491 126" fill="none" xmlns="http://www.w3.org/2000/svg">
<mask id="path-1-inside-1_651_289" fill="white">
<rect x="25" y="38" width="50" height="50" rx="2"/>
</mask>
<rect x="25" y="38" width="50" height="50" rx="2" fill="#3A87FE" stroke="black" stroke-width="6" mask="url(#path-1-inside-1_651_289)"/>
<circle cx="25" cy="88" r="23.5" fill="#FFC402" stroke="black" stroke-width="3"/>
<path d="M75.4472 17.2485L97.2111 60.7764C97.3774 61.1088 97.1356 61.5 96.7639 61.5H53.2361C52.8644 61.5 52.6226 61.1088 52.7889 60.7764L74.5528 17.2485C74.737 16.88 75.2629 16.88 75.4472 17.2485Z" fill="#57D383" stroke="black" stroke-width="3"/>
<path d="M117 100V51.1H134.5V100H117ZM125.7 45.4C123.1 45.4 120.933 44.5333 119.2 42.8C117.467 41 116.6 38.7667 116.6 36.1C116.6 33.5 117.467 31.3 119.2 29.5C120.933 27.7 123.1 26.8 125.7 26.8C128.433 26.8 130.633 27.7 132.3 29.5C134.033 31.3 134.9 33.5 134.9 36.1C134.9 38.7667 134.033 41 132.3 42.8C130.633 44.5333 128.433 45.4 125.7 45.4ZM176.339 100V72.4C176.339 70.1333 175.672 68.3667 174.339 67.1C173.006 65.7667 171.306 65.1 169.239 65.1C167.839 65.1 166.572 65.4 165.439 66C164.372 66.6 163.539 67.4333 162.939 68.5C162.339 69.5667 162.039 70.8667 162.039 72.4L155.239 69.2C155.239 65.2667 156.106 61.9 157.839 59.1C159.572 56.2333 161.939 54.0333 164.939 52.5C168.006 50.9 171.472 50.1 175.339 50.1C178.872 50.1 182.006 50.9333 184.739 52.6C187.539 54.2 189.739 56.3667 191.339 59.1C192.939 61.8333 193.739 64.9333 193.739 68.4V100H176.339ZM144.639 100V51.1H162.039V100H144.639ZM208.354 100V48C208.354 43.8667 209.254 40.1667 211.054 36.9C212.854 33.5667 215.421 30.9 218.754 28.9C222.154 26.9 226.221 25.9 230.954 25.9C234.487 25.9 237.587 26.5 240.254 27.7C242.921 28.8333 245.221 30.3667 247.154 32.3L236.254 43.2C235.721 42.6 235.054 42.1667 234.254 41.9C233.521 41.5667 232.654 41.4 231.654 41.4C229.854 41.4 228.421 41.9333 227.354 43C226.287 44.0667 225.754 45.5 225.754 47.3V100H208.354ZM197.954 65.6V51.1H239.554V65.6H197.954ZM269.716 101.1C264.449 101.1 259.749 100 255.616 97.8C251.549 95.5333 248.316 92.4667 245.916 88.6C243.516 84.6667 242.316 80.2667 242.316 75.4C242.316 70.5333 243.482 66.2 245.816 62.4C248.216 58.5333 251.482 55.5 255.616 53.3C259.749 51.0333 264.416 49.9 269.616 49.9C274.816 49.9 279.449 51.0333 283.516 53.3C287.649 55.5 290.916 58.5333 293.316 62.4C295.716 66.2 296.916 70.5333 296.916 75.4C296.916 80.2667 295.716 84.6667 293.316 88.6C290.982 92.4667 287.749 95.5333 283.616 97.8C279.549 100 274.916 101.1 269.716 101.1ZM269.616 85.6C271.549 85.6 273.216 85.2 274.616 84.4C276.082 83.5333 277.216 82.3333 278.016 80.8C278.816 79.2667 279.216 77.5 279.216 75.5C279.216 73.5 278.782 71.7667 277.916 70.3C277.116 68.7667 276.016 67.6 274.616 66.8C273.216 65.9333 271.549 65.5 269.616 65.5C267.749 65.5 266.082 65.9333 264.616 66.8C263.149 67.6667 262.016 68.8667 261.216 70.4C260.416 71.8667 260.016 73.6 260.016 75.6C260.016 77.5333 260.416 79.2667 261.216 80.8C262.016 82.3333 263.149 83.5333 264.616 84.4C266.082 85.2 267.749 85.6 269.616 85.6ZM303.819 100V51.1H321.219V100H303.819ZM321.219 73.4L313.419 66.8C315.352 61.2667 317.919 57.1 321.119 54.3C324.319 51.5 328.485 50.1 333.619 50.1C335.952 50.1 337.952 50.4 339.619 51C341.352 51.6 342.819 52.5333 344.019 53.8L333.919 67.3C333.385 66.7 332.619 66.2333 331.619 65.9C330.685 65.5 329.619 65.3 328.419 65.3C326.152 65.3 324.385 66 323.119 67.4C321.852 68.7333 321.219 70.7333 321.219 73.4ZM347.273 100V51.1H364.773V100H347.273ZM355.973 45.4C353.373 45.4 351.207 44.5333 349.473 42.8C347.74 41 346.873 38.7667 346.873 36.1C346.873 33.5 347.74 31.3 349.473 29.5C351.207 27.7 353.373 26.8 355.973 26.8C358.707 26.8 360.907 27.7 362.573 29.5C364.307 31.3 365.173 33.5 365.173 36.1C365.173 38.7667 364.307 41 362.573 42.8C360.907 44.5333 358.707 45.4 355.973 45.4ZM395.913 101C391.179 101 387.013 99.9 383.413 97.7C379.813 95.5 376.979 92.5 374.913 88.7C372.913 84.8333 371.913 80.4667 371.913 75.6C371.913 70.6667 372.913 66.2667 374.913 62.4C376.979 58.5333 379.779 55.5333 383.313 53.4C386.913 51.2 391.113 50.1 395.913 50.1C398.979 50.1 401.846 50.6667 404.513 51.8C407.179 52.8667 409.413 54.4 411.213 56.4C413.013 58.4 414.079 60.6667 414.413 63.2V87.1C414.079 89.6333 413.013 91.9667 411.213 94.1C409.413 96.2333 407.179 97.9333 404.513 99.2C401.846 100.4 398.979 101 395.913 101ZM399.013 85.5C400.946 85.5 402.613 85.1 404.013 84.3C405.413 83.4333 406.513 82.2667 407.313 80.8C408.179 79.2667 408.613 77.5 408.613 75.5C408.613 73.5667 408.213 71.8667 407.413 70.4C406.613 68.9333 405.479 67.7667 404.013 66.9C402.613 66.0333 400.979 65.6 399.113 65.6C397.246 65.6 395.579 66.0333 394.113 66.9C392.713 67.7667 391.579 68.9667 390.713 70.5C389.913 71.9667 389.513 73.6333 389.513 75.5C389.513 77.4333 389.913 79.1667 390.713 80.7C391.513 82.1667 392.646 83.3333 394.113 84.2C395.579 85.0667 397.213 85.5 399.013 85.5ZM425.013 100H407.913V86.9L410.413 74.9L407.613 63.1V27.1H425.013V100ZM455.566 101C451.033 101 447 99.9 443.466 97.7C439.933 95.5 437.166 92.5 435.166 88.7C433.166 84.8333 432.166 80.4667 432.166 75.6C432.166 70.6667 433.166 66.2667 435.166 62.4C437.166 58.5333 439.933 55.5333 443.466 53.4C447 51.2 451.033 50.1 455.566 50.1C458.633 50.1 461.433 50.6667 463.966 51.8C466.5 52.8667 468.566 54.4 470.166 56.4C471.833 58.4 472.833 60.6667 473.166 63.2V87.8C472.833 90.4 471.833 92.7 470.166 94.7C468.566 96.6333 466.5 98.1667 463.966 99.3C461.433 100.433 458.633 101 455.566 101ZM459.266 85.5C462.133 85.5 464.433 84.5667 466.166 82.7C467.966 80.8333 468.866 78.4333 468.866 75.5C468.866 73.5667 468.466 71.8667 467.666 70.4C466.866 68.9333 465.733 67.7667 464.266 66.9C462.866 66.0333 461.233 65.6 459.366 65.6C457.5 65.6 455.833 66.0333 454.366 66.9C452.966 67.7667 451.833 68.9667 450.966 70.5C450.166 71.9667 449.766 73.6333 449.766 75.5C449.766 77.4333 450.166 79.1667 450.966 80.7C451.766 82.1667 452.9 83.3333 454.366 84.2C455.833 85.0667 457.466 85.5 459.266 85.5ZM468.166 100V86.9L470.666 74.9L468.166 63.1V51.1H485.266V100H468.166Z" fill="black"/>
</svg>
